<svg xmlns="http://www.w3.org/2000/svg" xmlns:xlink="http://www.w3.org/1999/xlink" width="52" height="52" viewBox="0 0 52 52"><defs><linearGradient id="a" y1="0.5" x2="1" y2="0.635" gradientUnits="objectBoundingBox"><stop offset="0" stop-color="#a3de66"/><stop offset="1" stop-color="#84c857"/></linearGradient></defs><g transform="translate(-163.762 -683.762)"><g transform="translate(163.762 683.762)"><rect width="52" height="52" rx="6" fill="url(#a)"/></g><g transform="translate(179.009 701.16)"><g transform="translate(0 0)"><path d="M20.4,49.163l-7.486-7.486a1.138,1.138,0,0,0-1.6,0l-.68.68a1.126,1.126,0,0,0-.331.8,1.148,1.148,0,0,0,.331.812l4.367,4.377H1.12A1.107,1.107,0,0,0,0,49.463v.961a1.15,1.15,0,0,0,1.12,1.165H15.044l-4.416,4.4a1.124,1.124,0,0,0,0,1.593l.68.678a1.138,1.138,0,0,0,1.6,0L20.4,50.773a1.144,1.144,0,0,0,0-1.61Z" transform="translate(0 -41.346)" fill="#fff"/></g></g></g></svg>