<?xml version="1.0" standalone="no"?>
<!DOCTYPE svg PUBLIC "-//W3C//DTD SVG 20010904//EN"
 "http://www.w3.org/TR/2001/REC-SVG-20010904/DTD/svg10.dtd">
<svg version="1.0" xmlns="http://www.w3.org/2000/svg"
 width="198.000000pt" height="198.000000pt" viewBox="0 0 198.000000 198.000000"
 preserveAspectRatio="xMidYMid meet">

<g transform="translate(0.000000,198.000000) scale(0.100000,-0.100000)"
fill="#000000" stroke="none">
<path d="M968 1630 c-60 -10 -113 -22 -119 -26 -14 -8 -6 -391 8 -405 5 -5 45
-2 92 7 45 9 85 13 87 11 5 -4 -27 -188 -43 -254 -4 -18 -1 -23 16 -23 17 0
39 35 121 201 81 160 99 204 89 215 -8 10 -35 14 -90 14 -44 0 -79 4 -79 8 0
5 21 61 46 126 63 160 64 159 -128 126z m132 -5 c0 -8 -20 -67 -45 -131 -25
-64 -45 -121 -45 -128 0 -9 24 -11 90 -8 58 3 90 1 90 -6 0 -6 -38 -88 -85
-184 -46 -95 -85 -164 -85 -153 0 11 7 55 15 98 24 123 24 121 -37 114 -29 -4
-71 -9 -94 -13 l-41 -6 -7 188 c-3 103 -3 191 1 195 6 5 179 41 236 48 4 1 7
-6 7 -14z"/>
<path d="M1031 1548 c-5 -13 -11 -39 -15 -58 l-7 -35 14 30 c17 37 29 85 22
85 -3 0 -9 -10 -14 -22z"/>
<path d="M997 1443 c-4 -3 -7 -13 -7 -22 1 -13 3 -13 11 2 11 19 8 33 -4 20z"/>
<path d="M1141 1307 c-16 -41 -13 -57 5 -24 8 16 13 34 11 40 -3 7 -10 -1 -16
-16z"/>
<path d="M1106 1234 c-4 -9 -4 -19 -1 -22 2 -3 7 3 11 12 4 9 4 19 1 22 -2 3
-7 -3 -11 -12z"/>
<path d="M676 1562 c3 -11 0 -30 -6 -42 -11 -20 -10 -22 5 -17 9 4 25 2 36 -3
16 -9 19 -7 19 13 0 12 5 28 12 35 9 9 5 12 -18 12 -16 0 -35 5 -41 11 -9 9
-11 7 -7 -9z"/>
<path d="M1168 1482 c-19 -4 -22 -11 -10 -28 4 -6 14 -9 23 -5 22 8 9 38 -13
33z"/>
<path d="M687 1286 c-8 -19 19 -28 33 -12 8 10 7 15 -6 20 -21 8 -21 8 -27 -8z"/>
<path d="M1209 1211 c-10 -4 -14 -12 -10 -23 4 -11 11 -14 19 -9 19 12 11 40
-9 32z"/>
<path d="M930 1125 c0 -16 16 -20 24 -6 3 5 -1 11 -9 15 -9 3 -15 0 -15 -9z"/>
<path d="M1197 893 c-42 -5 -61 -30 -34 -45 10 -5 17 -21 17 -38 0 -27 -3 -30
-30 -30 -19 0 -42 -11 -62 -29 -29 -26 -32 -34 -32 -84 0 -39 5 -61 17 -75 24
-26 62 -33 87 -15 17 12 23 12 44 -2 28 -19 58 -9 76 25 8 15 6 21 -6 28 -15
8 -16 25 -12 141 5 117 4 131 -11 129 -9 -1 -33 -3 -54 -5z m-17 -219 c0 -47
-3 -55 -17 -52 -13 2 -19 15 -21 42 -4 47 3 66 23 66 12 0 15 -12 15 -56z"/>
<path d="M1330 880 c-33 -33 -19 -70 25 -70 44 0 63 60 26 80 -26 13 -28 13
-51 -10z"/>
<path d="M346 845 c-3 -9 1 -18 9 -21 22 -9 22 -209 0 -218 -8 -3 -15 -15 -15
-27 0 -15 4 -19 16 -15 9 3 47 6 85 6 66 0 69 1 69 24 0 18 -6 25 -22 28 -17
2 -24 11 -26 31 -3 26 -2 27 42 27 44 0 46 1 46 28 0 26 -2 27 -40 24 -46 -5
-57 9 -41 52 9 23 14 25 31 16 11 -6 20 -17 20 -24 0 -8 10 -11 30 -8 28 4 30
7 30 48 l0 44 -114 0 c-93 0 -115 -3 -120 -15z"/>
<path d="M625 769 c-49 -24 -67 -106 -35 -157 24 -39 62 -55 111 -47 46 8 78
41 86 88 13 80 -23 127 -96 126 -25 0 -55 -5 -66 -10z m73 -103 c3 -51 1 -57
-15 -54 -13 2 -19 14 -21 47 -4 51 3 74 21 69 7 -3 13 -27 15 -62z"/>
<path d="M849 751 c-24 -25 -29 -38 -29 -80 0 -74 30 -106 100 -106 46 0 55 4
82 34 28 31 30 39 26 89 -6 71 -29 92 -100 92 -41 0 -54 -5 -79 -29z m94 -58
c4 -21 4 -48 1 -60 -7 -26 -29 -30 -38 -7 -8 21 -8 89 1 97 16 17 31 4 36 -30z"/>
<path d="M1318 773 c-20 -3 -28 -10 -28 -24 0 -10 7 -19 15 -19 12 0 15 -13
15 -60 0 -45 -4 -62 -15 -66 -8 -4 -15 -15 -15 -26 0 -14 5 -18 16 -14 9 3 38
6 65 6 42 0 49 3 49 20 0 11 -5 20 -11 20 -7 0 -10 28 -8 85 l4 85 -30 -1
c-16 -1 -42 -4 -57 -6z"/>
<path d="M1468 757 c-48 -44 -48 -125 -2 -168 31 -29 97 -32 137 -6 38 24 26
50 -19 41 -21 -4 -40 -2 -49 6 -27 22 -16 30 40 30 l55 0 0 40 c0 56 -26 80
-89 80 -37 0 -54 -6 -73 -23z m92 -48 c0 -5 -11 -9 -25 -9 -23 0 -24 2 -15 21
9 16 14 18 26 8 8 -6 14 -15 14 -20z"/>
<path d="M750 455 c0 -29 8 -32 25 -9 6 9 19 15 28 13 15 -3 12 -12 -18 -56
-19 -29 -35 -55 -35 -58 0 -3 25 -5 55 -5 30 0 55 4 55 9 0 6 12 4 26 -4 57
-29 116 23 97 89 -6 20 -18 34 -37 41 -43 15 -78 -10 -94 -67 -8 -31 -20 -49
-33 -53 -35 -11 -34 3 4 58 21 30 37 57 37 60 0 4 -25 7 -55 7 -52 0 -55 -1
-55 -25z m201 -22 c24 -62 -31 -109 -58 -51 -10 18 -10 34 -3 52 13 35 47 35
61 -1z"/>
<path d="M990 465 c7 -9 11 -36 8 -70 -3 -53 -2 -55 22 -55 17 0 21 3 12 9 -8
5 -12 23 -10 47 l3 39 34 -53 c18 -28 37 -52 42 -52 4 0 9 28 11 62 4 81 28
94 28 15 0 -35 -5 -57 -12 -60 -7 -3 13 -6 45 -6 52 -1 57 1 57 21 0 20 -1 20
-18 5 -26 -24 -42 -21 -42 8 0 18 5 25 20 25 11 0 20 5 20 10 0 6 -9 10 -20
10 -13 0 -20 7 -20 20 0 13 7 20 20 20 11 0 20 -4 20 -10 0 -5 5 -10 10 -10 6
0 10 9 10 20 0 18 -7 20 -74 20 l-74 0 5 -47 5 -48 -32 48 c-24 35 -39 47 -57
47 -21 0 -23 -2 -13 -15z"/>
</g>
</svg>
